<svg id="visual" viewBox="0 0 500 600" xmlns="http://www.w3.org/2000/svg" xmlns:xlink="http://www.w3.org/1999/xlink" version="1.1">
<path d="M388 600L384.3 585.7C380.7 571.3 373.3 542.7 398.8 514.2C424.3 485.7 482.7 457.3 495 428.8C507.3 400.3 473.7 371.7 443.2 343C412.7 314.3 385.3 285.7 371.8 257C358.3 228.3 358.7 199.7 379.2 171.2C399.7 142.7 440.3 114.3 452.5 85.8C464.7 57.3 448.3 28.7 440.2 14.3L432 0L900 0L900 14.3C900 28.7 900 57.3 900 85.8C900 114.3 900 142.7 900 171.2C900 199.7 900 228.3 900 257C900 285.7 900 314.3 900 343C900 371.7 900 400.3 900 428.8C900 457.3 900 485.7 900 514.2C900 542.7 900 571.3 900 585.7L900 600Z" fill="#f9b379"></path>
<path d="M635 600L628.5 585.7C622 571.3 609 542.7 611.2 514.2C613.3 485.7 630.7 457.3 624.5 428.8C618.3 400.3 588.7 371.7 577.3 343C566 314.3 573 285.7 567.5 257C562 228.3 544 199.7 545 171.2C546 142.7 566 114.3 586.5 85.8C607 57.3 628 28.7 638.5 14.3L649 0L900 0L900 14.3C900 28.7 900 57.3 900 85.8C900 114.3 900 142.7 900 171.2C900 199.7 900 228.3 900 257C900 285.7 900 314.3 900 343C900 371.7 900 400.3 900 428.8C900 457.3 900 485.7 900 514.2C900 542.7 900 571.3 900 585.7L900 600Z" fill="#faa665"></path>
<path d="M642 600L659.3 585.7C676.7 571.3 711.3 542.7 715.8 514.2C720.3 485.7 694.7 457.3 685.5 428.8C676.3 400.3 683.7 371.7 698.3 343C713 314.3 735 285.7 733.3 257C731.7 228.3 706.3 199.7 711.3 171.2C716.3 142.7 751.7 114.3 756.3 85.8C761 57.3 735 28.7 722 14.3L709 0L900 0L900 14.3C900 28.7 900 57.3 900 85.8C900 114.3 900 142.7 900 171.2C900 199.7 900 228.3 900 257C900 285.7 900 314.3 900 343C900 371.7 900 400.3 900 428.8C900 457.3 900 485.7 900 514.2C900 542.7 900 571.3 900 585.7L900 600Z" fill="#fb9851"></path>
</svg>